<?xml version="1.0" encoding="utf-8"?>
<!-- Generator: Adobe Illustrator 22.0.0, SVG Export Plug-In . SVG Version: 6.00 Build 0)  -->
<svg version="1.1" id="Layer_1" xmlns="http://www.w3.org/2000/svg" xmlns:xlink="http://www.w3.org/1999/xlink" x="0px" y="0px"
	 viewBox="0 0 50 50" enable-background="new 0 0 50 50" xml:space="preserve">
<path d="M15.83,38.33c-0.46,0-0.83,0.37-0.83,0.83v10c0,0.46,0.37,0.83,0.83,0.83c0.46,0,0.83-0.37,0.83-0.83v-10
	C16.67,38.71,16.29,38.33,15.83,38.33z"/>
<path d="M5,35.83v-6.67c0-0.46-0.37-0.83-0.83-0.83c-0.46,0-0.83,0.37-0.83,0.83v6.67c0,0.46,0.37,0.83,0.83,0.83
	C4.63,36.67,5,36.29,5,35.83z"/>
<path d="M12.5,45H0.83C0.37,45,0,45.37,0,45.83s0.37,0.83,0.83,0.83H12.5c0.46,0,0.83-0.37,0.83-0.83S12.96,45,12.5,45z"/>
<path d="M12.5,48.33H0.83C0.37,48.33,0,48.71,0,49.17S0.37,50,0.83,50H12.5c0.46,0,0.83-0.37,0.83-0.83S12.96,48.33,12.5,48.33z"/>
<path d="M15,33.33h-5V30h5V33.33z M15.83,28.33H9.17c-0.46,0-0.83,0.37-0.83,0.83v6.67c0,0.46,0.37,0.83,0.83,0.83
	c0.46,0,0.83-0.37,0.83-0.83V35h5v0.83c0,0.46,0.37,0.83,0.83,0.83c0.46,0,0.83-0.37,0.83-0.83v-6.67
	C16.67,28.71,16.29,28.33,15.83,28.33z"/>
<path d="M12.5,41.67H0.83C0.37,41.67,0,42.04,0,42.5s0.37,0.83,0.83,0.83H12.5c0.46,0,0.83-0.37,0.83-0.83S12.96,41.67,12.5,41.67z"
	/>
<path d="M12.5,38.33H0.83C0.37,38.33,0,38.71,0,39.17S0.37,40,0.83,40H12.5c0.46,0,0.83-0.37,0.83-0.83S12.96,38.33,12.5,38.33z"/>
<path d="M23.33,16.67c0-0.92,0.75-1.67,1.67-1.67c0.92,0,1.67,0.75,1.67,1.67c0,0.92-0.75,1.67-1.67,1.67
	C24.08,18.33,23.33,17.59,23.33,16.67z M28.33,16.67c0-1.84-1.49-3.33-3.33-3.33c-1.84,0-3.33,1.5-3.33,3.33
	C21.67,18.5,23.16,20,25,20S28.33,18.5,28.33,16.67z"/>
<path d="M29.17,48.33h-10c-0.46,0-0.83,0.37-0.83,0.83S18.71,50,19.17,50h10c0.46,0,0.83-0.37,0.83-0.83S29.63,48.33,29.17,48.33z"
	/>
<path d="M19.17,46.67h6.86c0.46,0,0.83-0.37,0.83-0.83S26.49,45,26.03,45h-6.86c-0.46,0-0.83,0.37-0.83,0.83
	S18.71,46.67,19.17,46.67z"/>
<path d="M38.33,48.33c-5.51,0-10-4.49-10-10c0-5.51,4.49-10,10-10c5.51,0,10,4.49,10,10C48.33,43.85,43.85,48.33,38.33,48.33z
	 M38.33,26.67c-6.43,0-11.67,5.23-11.67,11.67C26.67,44.77,31.9,50,38.33,50C44.77,50,50,44.77,50,38.33
	C50,31.9,44.77,26.67,38.33,26.67z"/>
<path d="M49.17,6.67H33.33c-0.46,0-0.83,0.37-0.83,0.83s0.37,0.83,0.83,0.83h15v17.99L25.59,3.58C25.43,3.41,25.21,3.33,25,3.33
	c-0.21,0-0.43,0.08-0.59,0.25L1.67,26.32V8.33h9.17c0.46,0,0.83-0.37,0.83-0.83V4.17c0-0.46-0.37-0.83-0.83-0.83H10V1.67h5v1.67
	h-0.83c-0.46,0-0.83,0.37-0.83,0.83V7.5c0,0.46,0.37,0.83,0.83,0.83h2.5c0.46,0,0.83-0.37,0.83-0.83s-0.37-0.83-0.83-0.83H15V5h0.83
	c0.46,0,0.83-0.37,0.83-0.83V0.83c0-0.46-0.37-0.83-0.83-0.83H9.17C8.71,0,8.33,0.37,8.33,0.83v3.33C8.33,4.63,8.71,5,9.17,5H10
	v1.67H0.83c-0.22,0-0.43,0.09-0.59,0.24C0.09,7.07,0,7.28,0,7.5l0,20.83c0,0.34,0.2,0.64,0.52,0.77c0.1,0.04,0.21,0.06,0.32,0.06
	c0.22,0,0.43-0.08,0.59-0.24L25,5.34l23.58,23.58c0.16,0.16,0.37,0.25,0.59,0.25c0.11,0,0.22-0.02,0.32-0.06
	C49.8,28.97,50,28.67,50,28.33V7.5C50,7.04,49.63,6.67,49.17,6.67z"/>
<path d="M38.33,34.17c0.92,0,1.67,0.75,1.67,1.67c0,0.46,0.37,0.83,0.83,0.83s0.83-0.37,0.83-0.83c0-1.55-1.07-2.84-2.5-3.21V32.5
	c0-0.46-0.37-0.83-0.83-0.83s-0.83,0.37-0.83,0.83v0.12c-1.43,0.37-2.5,1.67-2.5,3.21c0,1.84,1.49,3.33,3.33,3.33
	c0.92,0,1.67,0.75,1.67,1.67c0,0.92-0.75,1.67-1.67,1.67c-0.92,0-1.67-0.75-1.67-1.67c0-0.46-0.37-0.83-0.83-0.83S35,40.37,35,40.83
	c0,1.55,1.07,2.84,2.5,3.22v0.12c0,0.46,0.37,0.83,0.83,0.83s0.83-0.37,0.83-0.83v-0.12c1.43-0.37,2.5-1.67,2.5-3.22
	c0-1.84-1.49-3.33-3.33-3.33c-0.92,0-1.67-0.75-1.67-1.67C36.67,34.91,37.41,34.17,38.33,34.17z"/>
<path d="M19.17,43.33h5.42c0.46,0,0.83-0.37,0.83-0.83s-0.37-0.83-0.83-0.83h-5.42c-0.46,0-0.83,0.37-0.83,0.83
	S18.71,43.33,19.17,43.33z"/>
<path d="M20,29.17v6.67c0,0.46,0.37,0.83,0.83,0.83c0.46,0,0.83-0.37,0.83-0.83V30h5.83c0.46,0,0.83-0.37,0.83-0.83
	s-0.37-0.83-0.83-0.83h-6.67C20.37,28.33,20,28.71,20,29.17z"/>
<path d="M18.33,39.17c0,0.46,0.37,0.83,0.83,0.83h5c0.46,0,0.83-0.37,0.83-0.83s-0.37-0.83-0.83-0.83h-5
	C18.71,38.33,18.33,38.71,18.33,39.17z"/>
</svg>
